<mxfile host="app.diagrams.net" modified="2024-02-03T21:48:03.760Z" agent="Mozilla/5.0 (Windows NT 10.0; Win64; x64) AppleWebKit/537.36 (KHTML, like Gecko) Chrome/121.0.0.0 Safari/537.36" etag="nqzhC_MbTAGLid7qoMEF" version="23.1.1" type="device">
  <diagram id="6YwQQIW8eCQRHDkm4CSs" name="Page-1">
    <mxGraphModel dx="1050" dy="569" grid="1" gridSize="10" guides="1" tooltips="1" connect="1" arrows="1" fold="1" page="1" pageScale="1" pageWidth="827" pageHeight="1169" math="0" shadow="0">
      <root>
        <mxCell id="0" />
        <mxCell id="1" parent="0" />
        <mxCell id="Cp4dtQhgt5TdD2hLn1yJ-10" style="edgeStyle=orthogonalEdgeStyle;rounded=0;orthogonalLoop=1;jettySize=auto;html=1;exitX=0.5;exitY=1;exitDx=0;exitDy=0;entryX=0.5;entryY=0;entryDx=0;entryDy=0;strokeWidth=1;" edge="1" parent="1" source="DnkCzbvQFBXvj7n7dTfT-1" target="Cp4dtQhgt5TdD2hLn1yJ-9">
          <mxGeometry relative="1" as="geometry" />
        </mxCell>
        <mxCell id="DnkCzbvQFBXvj7n7dTfT-1" value="result[initStr.length]" style="rounded=1;whiteSpace=wrap;html=1;strokeWidth=1;" parent="1" vertex="1">
          <mxGeometry x="330" y="140" width="120" height="60" as="geometry" />
        </mxCell>
        <mxCell id="DnkCzbvQFBXvj7n7dTfT-7" value="" style="edgeStyle=orthogonalEdgeStyle;rounded=0;orthogonalLoop=1;jettySize=auto;html=1;exitX=0;exitY=0.5;exitDx=0;exitDy=0;strokeWidth=1;" parent="1" source="DnkCzbvQFBXvj7n7dTfT-3" target="DnkCzbvQFBXvj7n7dTfT-4" edge="1">
          <mxGeometry relative="1" as="geometry" />
        </mxCell>
        <mxCell id="Cp4dtQhgt5TdD2hLn1yJ-15" value="" style="edgeStyle=orthogonalEdgeStyle;rounded=0;orthogonalLoop=1;jettySize=auto;html=1;entryX=0;entryY=0.5;entryDx=0;entryDy=0;strokeWidth=1;" edge="1" parent="1" source="DnkCzbvQFBXvj7n7dTfT-3" target="Cp4dtQhgt5TdD2hLn1yJ-16">
          <mxGeometry relative="1" as="geometry">
            <mxPoint x="530" y="356" as="targetPoint" />
          </mxGeometry>
        </mxCell>
        <mxCell id="DnkCzbvQFBXvj7n7dTfT-3" value="value in initStr" style="shape=hexagon;perimeter=hexagonPerimeter2;whiteSpace=wrap;html=1;fixedSize=1;strokeWidth=1;" parent="1" vertex="1">
          <mxGeometry x="330" y="340" width="120" height="56" as="geometry" />
        </mxCell>
        <mxCell id="B7fp_Nzf1htRCQnwWERk-2" value="" style="edgeStyle=orthogonalEdgeStyle;rounded=0;orthogonalLoop=1;jettySize=auto;html=1;exitX=0;exitY=0.5;exitDx=0;exitDy=0;entryX=0.5;entryY=0;entryDx=0;entryDy=0;strokeWidth=1;" parent="1" source="DnkCzbvQFBXvj7n7dTfT-4" target="DnkCzbvQFBXvj7n7dTfT-5" edge="1">
          <mxGeometry relative="1" as="geometry">
            <Array as="points">
              <mxPoint x="110" y="450" />
            </Array>
          </mxGeometry>
        </mxCell>
        <mxCell id="DnkCzbvQFBXvj7n7dTfT-4" value="if (value.length &amp;lt;= 3)" style="rhombus;whiteSpace=wrap;html=1;strokeWidth=1;" parent="1" vertex="1">
          <mxGeometry x="160" y="410" width="125" height="80" as="geometry" />
        </mxCell>
        <mxCell id="DnkCzbvQFBXvj7n7dTfT-5" value="resuly[realSize] = value&lt;br&gt;realSize +=1" style="whiteSpace=wrap;html=1;strokeWidth=1;" parent="1" vertex="1">
          <mxGeometry x="40" y="590" width="140" height="50" as="geometry" />
        </mxCell>
        <mxCell id="B7fp_Nzf1htRCQnwWERk-4" value="" style="endArrow=classic;html=1;rounded=0;exitX=1;exitY=0.5;exitDx=0;exitDy=0;strokeWidth=1;" parent="1" source="DnkCzbvQFBXvj7n7dTfT-4" edge="1">
          <mxGeometry width="50" height="50" relative="1" as="geometry">
            <mxPoint x="510" y="366" as="sourcePoint" />
            <mxPoint x="320" y="370" as="targetPoint" />
            <Array as="points">
              <mxPoint x="320" y="450" />
              <mxPoint x="320" y="420" />
              <mxPoint x="320" y="390" />
            </Array>
          </mxGeometry>
        </mxCell>
        <mxCell id="B7fp_Nzf1htRCQnwWERk-6" value="Yes" style="text;html=1;align=center;verticalAlign=middle;resizable=0;points=[];autosize=1;strokeColor=none;fillColor=none;strokeWidth=1;" parent="1" vertex="1">
          <mxGeometry x="120" y="430" width="40" height="20" as="geometry" />
        </mxCell>
        <mxCell id="B7fp_Nzf1htRCQnwWERk-10" value="No" style="text;html=1;align=center;verticalAlign=middle;resizable=0;points=[];autosize=1;strokeColor=none;fillColor=none;strokeWidth=1;" parent="1" vertex="1">
          <mxGeometry x="285" y="430" width="30" height="20" as="geometry" />
        </mxCell>
        <mxCell id="Cp4dtQhgt5TdD2hLn1yJ-4" style="edgeStyle=orthogonalEdgeStyle;rounded=0;orthogonalLoop=1;jettySize=auto;html=1;exitX=0.5;exitY=1;exitDx=0;exitDy=0;exitPerimeter=0;entryX=0.5;entryY=0;entryDx=0;entryDy=0;strokeWidth=1;" edge="1" parent="1" source="Cp4dtQhgt5TdD2hLn1yJ-1" target="Cp4dtQhgt5TdD2hLn1yJ-2">
          <mxGeometry relative="1" as="geometry" />
        </mxCell>
        <mxCell id="Cp4dtQhgt5TdD2hLn1yJ-1" value="Start mainMethod" style="strokeWidth=1;html=1;shape=mxgraph.flowchart.start_2;whiteSpace=wrap;" vertex="1" parent="1">
          <mxGeometry x="330" y="10" width="130" height="40" as="geometry" />
        </mxCell>
        <mxCell id="Cp4dtQhgt5TdD2hLn1yJ-3" style="edgeStyle=orthogonalEdgeStyle;rounded=0;orthogonalLoop=1;jettySize=auto;html=1;exitX=0.5;exitY=1;exitDx=0;exitDy=0;entryX=0.5;entryY=0;entryDx=0;entryDy=0;strokeWidth=1;" edge="1" parent="1" source="Cp4dtQhgt5TdD2hLn1yJ-2" target="DnkCzbvQFBXvj7n7dTfT-1">
          <mxGeometry relative="1" as="geometry" />
        </mxCell>
        <mxCell id="Cp4dtQhgt5TdD2hLn1yJ-2" value="Ввод массива&lt;br&gt;&amp;nbsp;initStr[]" style="shape=parallelogram;html=1;strokeWidth=1;perimeter=parallelogramPerimeter;whiteSpace=wrap;rounded=1;arcSize=12;size=0.23;" vertex="1" parent="1">
          <mxGeometry x="330" y="70" width="130" height="40" as="geometry" />
        </mxCell>
        <mxCell id="Cp4dtQhgt5TdD2hLn1yJ-11" style="edgeStyle=orthogonalEdgeStyle;rounded=0;orthogonalLoop=1;jettySize=auto;html=1;exitX=0.5;exitY=1;exitDx=0;exitDy=0;entryX=0.5;entryY=0;entryDx=0;entryDy=0;strokeWidth=1;" edge="1" parent="1" source="Cp4dtQhgt5TdD2hLn1yJ-9" target="DnkCzbvQFBXvj7n7dTfT-3">
          <mxGeometry relative="1" as="geometry">
            <mxPoint x="390" y="310" as="targetPoint" />
          </mxGeometry>
        </mxCell>
        <mxCell id="Cp4dtQhgt5TdD2hLn1yJ-9" value="realSize = 0" style="rounded=1;whiteSpace=wrap;html=1;absoluteArcSize=1;arcSize=14;strokeWidth=1;" vertex="1" parent="1">
          <mxGeometry x="330" y="230" width="120" height="50" as="geometry" />
        </mxCell>
        <mxCell id="Cp4dtQhgt5TdD2hLn1yJ-18" value="" style="edgeStyle=orthogonalEdgeStyle;rounded=0;orthogonalLoop=1;jettySize=auto;html=1;strokeWidth=1;" edge="1" parent="1" source="Cp4dtQhgt5TdD2hLn1yJ-16" target="Cp4dtQhgt5TdD2hLn1yJ-17">
          <mxGeometry relative="1" as="geometry" />
        </mxCell>
        <mxCell id="Cp4dtQhgt5TdD2hLn1yJ-16" value="Вывод result[]" style="shape=parallelogram;html=1;strokeWidth=1;perimeter=parallelogramPerimeter;whiteSpace=wrap;rounded=1;arcSize=12;size=0.23;" vertex="1" parent="1">
          <mxGeometry x="490" y="345" width="150" height="46" as="geometry" />
        </mxCell>
        <mxCell id="Cp4dtQhgt5TdD2hLn1yJ-17" value="End MainMethod" style="ellipse;whiteSpace=wrap;html=1;strokeWidth=1;rounded=1;arcSize=12;" vertex="1" parent="1">
          <mxGeometry x="690" y="340" width="70" height="56" as="geometry" />
        </mxCell>
      </root>
    </mxGraphModel>
  </diagram>
</mxfile>
